<svg id="Layer_1" data-name="Layer 1" xmlns="http://www.w3.org/2000/svg" xmlns:xlink="http://www.w3.org/1999/xlink" viewBox="0 0 1920 1080"><defs><style>.cls-1{fill:none;}.cls-2{clip-path:url(#clip-path);}.cls-3{fill:#74368c;}.cls-4{fill:#fdbf2d;}.cls-5{fill:red;}.cls-6{fill:#fcfcfc;}</style><clipPath id="clip-path"><rect class="cls-1" width="1920" height="1080"/></clipPath></defs><title>Artboard 1</title><g class="cls-2"><polygon class="cls-3" points="298.65 -370.45 960.5 540.5 502.51 -488.15 298.65 -370.45"/><polygon class="cls-4" points="123.72 -212.94 960.5 540.5 298.65 -370.45 123.72 -212.94"/><polygon class="cls-5" points="-14.64 -22.5 960.5 540.5 123.72 -212.94 -14.64 -22.5"/><polygon class="cls-3" points="-110.39 192.55 960.5 540.5 -14.64 -22.5 -110.39 192.55"/><polygon class="cls-4" points="-159.33 422.8 960.5 540.5 -110.39 192.55 -159.33 422.8"/><polygon class="cls-5" points="-159.33 658.2 960.5 540.5 -159.33 422.8 -159.33 658.2"/><polygon class="cls-3" points="-110.39 888.45 960.5 540.5 -159.33 658.2 -110.39 888.45"/><polygon class="cls-4" points="-14.64 1103.5 960.5 540.5 -110.39 888.45 -14.64 1103.5"/><polygon class="cls-5" points="123.72 1293.94 960.5 540.5 -14.64 1103.5 123.72 1293.94"/><polygon class="cls-3" points="298.65 1451.45 960.5 540.5 123.72 1293.94 298.65 1451.45"/><polygon class="cls-4" points="502.51 1569.15 960.5 540.5 298.65 1451.45 502.51 1569.15"/><polygon class="cls-5" points="726.39 1641.89 960.5 540.5 502.51 1569.15 726.39 1641.89"/><polygon class="cls-3" points="960.5 1666.5 960.5 540.5 726.39 1641.89 960.5 1666.5"/><polygon class="cls-4" points="1194.61 1641.89 960.5 540.5 960.5 1666.5 1194.61 1641.89"/><polygon class="cls-5" points="1418.48 1569.15 960.5 540.5 1194.61 1641.89 1418.48 1569.15"/><polygon class="cls-3" points="1622.35 1451.45 960.5 540.5 1418.48 1569.15 1622.35 1451.45"/><polygon class="cls-4" points="1797.28 1293.94 960.5 540.5 1622.35 1451.45 1797.28 1293.94"/><polygon class="cls-5" points="1935.64 1103.5 960.5 540.5 1797.28 1293.94 1935.64 1103.5"/><polygon class="cls-3" points="2031.39 888.45 960.5 540.5 1935.64 1103.5 2031.39 888.45"/><polygon class="cls-4" points="2080.33 658.2 960.5 540.5 2031.39 888.45 2080.33 658.2"/><polygon class="cls-5" points="2080.33 422.8 960.5 540.5 2080.33 658.2 2080.33 422.8"/><polygon class="cls-3" points="2031.39 192.55 960.5 540.5 2080.33 422.8 2031.39 192.55"/><polygon class="cls-4" points="1935.64 -22.5 960.5 540.5 2031.39 192.55 1935.64 -22.5"/><polygon class="cls-5" points="1797.28 -212.94 960.5 540.5 1935.64 -22.5 1797.28 -212.94"/><polygon class="cls-3" points="1622.35 -370.45 960.5 540.5 1797.28 -212.94 1622.35 -370.45"/><polygon class="cls-4" points="1418.48 -488.15 960.5 540.5 1622.35 -370.45 1418.48 -488.15"/><polygon class="cls-5" points="1194.61 -560.89 960.5 540.5 1418.48 -488.15 1194.61 -560.89"/><polygon class="cls-3" points="960.5 -585.5 960.5 540.5 1194.61 -560.89 960.5 -585.5"/><polygon class="cls-4" points="726.39 -560.89 960.5 540.5 960.5 -585.5 726.39 -560.89"/><polygon class="cls-5" points="502.51 -488.15 960.5 540.5 726.39 -560.89 502.51 -488.15"/><circle class="cls-6" cx="961" cy="533" r="169"/><path class="cls-5" d="M983.73,534.09a8.6,8.6,0,0,0,.35-1.5c.11-1.34.1-2.69.22-4s.33-2.54.49-3.81.34-2.54.44-3.82a2.47,2.47,0,0,0-.33-1c-.33-.85-.68-1.7-1-2.56a2.06,2.06,0,0,1,.65-1.57.7.7,0,0,1,1,.2.75.75,0,0,1,.07.12,8.38,8.38,0,0,1,1.37,3.06,1,1,0,0,0,.36.49c1.18,1.1,1.14,2.35.55,3.74a7.9,7.9,0,0,0-.29,1.6,10,10,0,0,1-.27,1.08,9.21,9.21,0,0,0-.61,1.91c-.09,1.42-.05,2.85,0,4.27a17.41,17.41,0,0,1,.22,1.73,11.54,11.54,0,0,1-.47,2.25,2.91,2.91,0,0,0,.54,2.44,3.92,3.92,0,0,1,1.44,2.68c-.76-.26-1,.28-1.07.75-.19.89-.29,1.79-.41,2.69-.05.4.13.58.54.42a6.56,6.56,0,0,0,1-.37,4.35,4.35,0,0,1,4-.2,5.73,5.73,0,0,0,.69.16c1.46.36,1.64,1.64,2,2.79a7.49,7.49,0,0,1-.07,3.82,7.05,7.05,0,0,1-.35,1.51,4.83,4.83,0,0,1-.71,1.14c-.11.14-.35.18-.54.27a1.93,1.93,0,0,1-.18-.56c0-.78,0-1.56,0-2.34a9.18,9.18,0,0,0-1-4.42,1.53,1.53,0,0,0-1.84-.57,10.38,10.38,0,0,1,1.18.53,2.23,2.23,0,0,1,.74,2.31c-.29,1-.68,2-.88,3A17.05,17.05,0,0,1,990,555.9c-.23.52-.73.93-.9,1.46a10.08,10.08,0,0,0-.54,2.55,12.35,12.35,0,0,1-.78,4c-.23.59-.68.6-1.11.6a.85.85,0,0,1-.9-.79v0a9.07,9.07,0,0,0-.54-2.88,2.12,2.12,0,0,1,.48-1.92c.26-.4.48-.85.71-1.28l-.17-.12a3.88,3.88,0,0,0-.31.26c-.72.72-1.43,1.46-2.16,2.17s-.65,1.68-.74,2.58a8.56,8.56,0,0,1-.92,3.73,9.29,9.29,0,0,0-1.4,3.13,5.88,5.88,0,0,0,.08,2.4c.15.7.82.87,1.51.61,1.18-.45,2.38-.85,3.55-1.33a2.51,2.51,0,0,0,1.16-.76,36.7,36.7,0,0,0,2.36-3.36,7.89,7.89,0,0,0,.64-3.25c.09-1.7.33-3.39.48-5.09,0-.57,0-1.14,0-1.71a.89.89,0,0,1,.82-.94h.19a1.29,1.29,0,0,0,.59-.22.93.93,0,0,1,1.44.55c.24,1.54.5,3.08.72,4.62a19.26,19.26,0,0,1,.21,2.16,46.32,46.32,0,0,1,.1,4.86,12.28,12.28,0,0,1-.79,3.32,31.93,31.93,0,0,1-1.53,3.24,10,10,0,0,1-2.73,3.1,9.43,9.43,0,0,1-2.19,1.52,15.55,15.55,0,0,1-3.15.9c-1.25.25-2.53.36-3.79.57-.17,0-.3.3-.45.46-.37.43-.36,1.09-.94,1.45a.51.51,0,0,1-.72,0h0a3.19,3.19,0,0,1-.61-.76c-.36-.62-.65-1.29-1-1.89a1.25,1.25,0,0,0-.78-.41,11.54,11.54,0,0,1-5.78-2.65,7.92,7.92,0,0,1-1.44-1.86.75.75,0,0,0-1-.4l-.07,0c-1.13.44-2.26.92-3.42,1.25s-2.3.47-3.45.7a8.22,8.22,0,0,1-1.2.24c-.52,0-.68.33-.77.76a2.73,2.73,0,0,0,.32,2,3.87,3.87,0,0,1,.1,3.11.85.85,0,0,1-1,.62c-.54-.12-1.21,0-1.36-.82-.11-.54-.16-1.1-.28-1.64,0-.23-.14-.57-.3-.63-.57-.22-.62-.66-.61-1.15,0-2.15-.14-1.72-1.77-1.71a12.47,12.47,0,0,1-3.58-.79,5.16,5.16,0,0,1-1-.35c-.57-.29-1.11-.63-1.66-1a2,2,0,0,0-2.24,0c-1.25.71-2.54,1.36-3.84,2a18.44,18.44,0,0,1-2.17.73c-.5.16-.59.56-.59,1,0,1.32,0,2.65,0,4a1.5,1.5,0,0,1-.11.63c-.1.18-.3.4-.47.42a.71.71,0,0,1-.57-.28c-.27-.51-.48-1-.7-1.59,0,0,0-.14-.06-.18a3.06,3.06,0,0,1-.75-2.6.61.61,0,0,0-.33-.45c-.65-.17-1.34-.22-2-.43a5.88,5.88,0,0,1-1.53-.8c-.33-.23-.5-.21-.76,0a3.11,3.11,0,0,1-3.92.24c-.44-.35-.73-.88-1.15-1.27A13.68,13.68,0,0,1,924,573.4a5.54,5.54,0,0,1-.76-1.81,60.91,60.91,0,0,1-.79-6.3,23.16,23.16,0,0,1,.36-4.7,2.77,2.77,0,0,1,.56-1.77,4.36,4.36,0,0,1,3.11-1.51,16.65,16.65,0,0,1,2.12,0,3.11,3.11,0,0,0,2.41-1c1-.88,2.15-1.62,3-2.59a11.09,11.09,0,0,0,2.74-3.76,2.29,2.29,0,0,0,0-.64,3.81,3.81,0,0,0-.59,0c-.38.1-.74.25-1.11.34s-1,.41-1.3.25a9.89,9.89,0,0,1-1.79-1.5c-.09-.07-.08-.3-.05-.44.19-1.11.38-2.23.59-3.34.32-1.63.68-3.25,1-4.88a5.64,5.64,0,0,1,1.21-2.58,4,4,0,0,0,.57-1.46c0-.1-.25-.31-.42-.42-.4-.27-.81-.48-.85-1.07,0-.17-.39-.38-.63-.45-.49-.14-1-.16-1.5-.31a1.18,1.18,0,0,1-.73-.53,15.51,15.51,0,0,1-1-4,2.31,2.31,0,0,1,.68-1.83,20.65,20.65,0,0,1,1.65-1.59,1.26,1.26,0,0,1,.87-.13c.95.15,1.89.32,2.82.53.39.08.84.18.8.76a2,2,0,0,0,.07.42c.17,1.07.17,1.09,1.25,1.32a.93.93,0,0,1,.86,1,7.44,7.44,0,0,0,.21,1.31c.21,1-.38,1.81-.57,2.71,0,.16,0,.33-.07.63a2.77,2.77,0,0,0,1.26-2.06c.39-1.53.69-3.08.94-4.63a25,25,0,0,1,1.69-5.08,4.3,4.3,0,0,0,.44-2.56,8.19,8.19,0,0,0-.53-1.07c-.3-.76-.59-1.53-.82-2.31a.77.77,0,0,1,.29-.63.86.86,0,0,1,1.17,0c.4.43.74.9,1.12,1.34a6.25,6.25,0,0,0,.67.69,2,2,0,0,1,.63,2.37,29.42,29.42,0,0,0-1.08,4.35c-.12.8-.49,1.56-.69,2.35s-.33,1.49-.48,2.25-.25,1.52-.41,2.27-.38,1.24-.51,1.87c-.16.85-.26,1.71-.39,2.57a1.64,1.64,0,0,0,1,1.92,1.49,1.49,0,0,1,.7,2.21,7,7,0,0,0-.69,4.27c.13.79,0,1.09-.77,1.32a4,4,0,0,1-1.56.26c-1.14-.14-2,.5-3,.86a16.41,16.41,0,0,1-1.79.61c-.88.22-1.4-.5-1.1-1.52.14-.49.43-.93.57-1.43a13.5,13.5,0,0,0,.23-1.44l-.16-.07a5.75,5.75,0,0,0-.42.71,6.47,6.47,0,0,0-.66,3.35c.07.53.23.95.89.81s1.54-.28,2.3-.47c1.35-.35,2.71-.7,4-1.13a3.8,3.8,0,0,0,2-1.19c.85-1.11,3-1.35,4.29-.7a3.52,3.52,0,0,1,1.66,1.94,7.81,7.81,0,0,1,1,3.42,11.62,11.62,0,0,1-.29,1.75c-.14.68-.71.49-1.15.48s-.44-.38-.49-.74a28.33,28.33,0,0,0-.81-3.85,9.09,9.09,0,0,1-1,6.44c2.26-.27,2.72,0,2.89,1.49a3.76,3.76,0,0,0,.67-.12,41.6,41.6,0,0,0,3.83-1.64,8.55,8.55,0,0,0,1.91-1.64,24.2,24.2,0,0,0,1.84-2.08,2.44,2.44,0,0,0,.27-.74,2.06,2.06,0,0,0-.76-.21,8.27,8.27,0,0,0-2,.32c-1.38.5-2.2-.37-2.32-1.61a16.6,16.6,0,0,1,.62-5.34,12.29,12.29,0,0,1,2.17-4.78,13.8,13.8,0,0,1,1.46-1.4c.7-.71.71-1,0-1.65a1,1,0,0,1-.35-1.1,1.33,1.33,0,0,1,.82-.63c.62-.14,1.28-.1,1.91-.22.24,0,.45-.29.68-.44a3.15,3.15,0,0,0-.69-.45,1.43,1.43,0,0,0-.65,0c-.56,0-1-.06-1-.74s0-1,.76-1.14a11,11,0,0,0,1.29-.32c0-.65-.78-1-1.54-.81s-.71.86-.9,1.34a4.43,4.43,0,0,0-.27,1.61,2,2,0,0,1-1.27,1.8c-.38.23-1.15,0-1.67-.26a2.58,2.58,0,0,1-1.5-2.23,1.78,1.78,0,0,0-.77-1.33,1.41,1.41,0,0,1-.1-2.16,6.45,6.45,0,0,1,2-1.7c1.2-.46,2.53-.86,3.79,0a4.26,4.26,0,0,0,1.06.6,7.19,7.19,0,0,1,3,2c.43.44.36,1.36.51,2.06,0,.13,0,.27,0,.4.08,1.22.06,2.4-1.42,3.17.55.21,1,.53,1.18.41a1.87,1.87,0,0,0,.62-1,11.71,11.71,0,0,0,.34-1.86,14.37,14.37,0,0,0,.18-2.62,7.55,7.55,0,0,1,1-4.05,16.8,16.8,0,0,0,.85-2.41,7.53,7.53,0,0,0,.3-1.33c.11-.93-.55-1.55-1-2.27a9.22,9.22,0,0,1-.67-1.23.69.69,0,0,1,.21-.65,2,2,0,0,1,1-.28,1.76,1.76,0,0,1,1.44,1,26.47,26.47,0,0,1,1.45,2.6,2,2,0,0,1-.06,1.09,12.32,12.32,0,0,1-.63,2.23c-.6,1.32-.31,2.75-.64,4.1,0,.1,0,.24-.08.31-.8.78-.72,1.82-.86,2.8-.23,1.73-.48,3.45-.73,5.18,0,.24-.16.47-.18.71-.06.81-.13,1.55,1,1.85.65.18.92,1.46.6,2.12-.47,1-1,1.9-1.43,2.88a3,3,0,0,0-.08,1c.34,0,.73.14,1,0a20.88,20.88,0,0,0,2.19-1.18,3.39,3.39,0,0,1,2.65,0c.23.13.46.24.7.35A2.46,2.46,0,0,1,972.9,546c.05,1.24.2,2.48.24,3.72,0,.88-.8,1.53-1.46,1.19a1.13,1.13,0,0,1-.5-.67c-.25-1-.42-2-.65-3a8.15,8.15,0,0,0-.48-1.47c-.07-.15-.39-.2-.69-.33a7.66,7.66,0,0,1,.38,1.64,11.53,11.53,0,0,1-1.25,5.35,14.35,14.35,0,0,0-1.64,4.58c-.13.87-.16,1.77-.34,2.63a22.56,22.56,0,0,1-1.23,4.9,1.39,1.39,0,0,1-.39.57c-.94-1.86-1.82-3.51-1.2-5.53a22.74,22.74,0,0,0,.88-4.31,14.7,14.7,0,0,0-.25-3.16c0-.37-.49-.39-.85-.07a8.71,8.71,0,0,0-2,2.89,20.89,20.89,0,0,0-.85,2.07,1.11,1.11,0,0,0,.33,1.5,2.5,2.5,0,0,1,1,1.38,2.88,2.88,0,0,1-.44,1.54c-.39.82-.91,1.57-1.26,2.4a2,2,0,0,0,0,1.32,6.07,6.07,0,0,1,.06,3.11,21,21,0,0,0-.19,2.38l1.81-.45c.93-.25,1.85-.51,2.77-.78a14.59,14.59,0,0,0,1.94-.62,1.67,1.67,0,0,0,.63-.76c.79-1.37,1.6-2.73,1.06-4.44a17.16,17.16,0,0,1-.32-1.88,8.72,8.72,0,0,1-.31-1.22c0-1.15,0-2.31,0-3.46,0-1.8,1.28-3.14,1.75-4.77.2-.71,1-.56,1.66-.31a3.21,3.21,0,0,1,.85.56.67.67,0,0,1,.27.9.35.35,0,0,1,0,.08,8,8,0,0,1-1.26,1.79,3.83,3.83,0,0,0-1.12,4.6,20.54,20.54,0,0,1,1,2.64,8.65,8.65,0,0,1,.2,3.76,7.66,7.66,0,0,1-2.11,3.31,7.79,7.79,0,0,1-2.87,2.15,2.69,2.69,0,0,0-.92.68,6.24,6.24,0,0,0,1.26-.36c.92-.47,1.81-1,2.7-1.52a2.72,2.72,0,0,0,.84-.59A9.82,9.82,0,0,0,972,565.9c.16-.83.41-1.65.51-2.49a6.55,6.55,0,0,0-1-4c-.12-.2-.24-.4-.34-.61a.83.83,0,0,1,.23-1.21c1.82-1.41,3.6-2.87,5.37-4.34,1-.81,1.87-1.69,2.8-2.55a4.24,4.24,0,0,0,.38-.56l-1.72.12c-.61,0-1.22.11-1.83.09s-.9-.58-.91-1.13a41.3,41.3,0,0,1,0-4.31,13.16,13.16,0,0,1,.61-1.94c.27-1.11.5-2.22.66-3.34.07-.48.24-.77.71-.87a3.12,3.12,0,0,0,.43-.15c1.12-.52,1.29-1.13.64-2.39l-.36-.66c-.79.52-1.41,0-2-.39a3.29,3.29,0,0,1-1.51-2.12,2.59,2.59,0,0,0-1.66-2,1,1,0,0,1-.61-.8c-.1-1.56.15-3,1.68-3.82a5.37,5.37,0,0,1,3.25-.3c1,.13,1.54,1.09,2.48,1.28a2,2,0,0,0,.42.1,2.54,2.54,0,0,1,2.54,1.66,7.45,7.45,0,0,1,.74,4.23c0,.24,0,.49,0,.74Zm-37.48,11.77-.09-.21a4.92,4.92,0,0,0-.76.09,2.85,2.85,0,0,0-1.42,1.42,6.1,6.1,0,0,0-1,2.53,11.26,11.26,0,0,1-.85,3.53,9.1,9.1,0,0,1-1.91,2.76c-.74.75-.68,1.14.17,1.75a1.69,1.69,0,0,1,.48.85,6.19,6.19,0,0,1,.23,1.42c0,.58.68,1.2-.09,1.76a1.82,1.82,0,0,0-.6,1.9,9,9,0,0,1,.08,1.8c-.15,1.8-.35,3.6-.54,5.39,0,.46.17.7.6.63a4.54,4.54,0,0,0,1.34-.42,13.87,13.87,0,0,0,3.17-2.26,3.3,3.3,0,0,0,.85-1,24.31,24.31,0,0,0,.87-2.66,29.32,29.32,0,0,0,.7-2.91,3.19,3.19,0,0,0-.18-1.19,11.52,11.52,0,0,1-.31-1.32c-.08-1-.07-2-.15-2.95-.06-.64-.22-1.28-.35-2.05a4,4,0,0,0-.26,3.26,1,1,0,0,1,0,.68,8.72,8.72,0,0,1-2.24,2.77c-.26.23-.61.4-.78-.17-.07-.26-.33-.47-.4-.73-.34-1.25-.94-2.48.1-3.74a7.08,7.08,0,0,0,1.18-2.24,1.89,1.89,0,0,0-.35-2.1,1.42,1.42,0,0,1-.47-1.38,10.85,10.85,0,0,1,.68-2.3c.54-1.1.62-2.57,2.25-2.87Zm45.54,13.06-.19,0c0,.06-.11.11-.1.16.11,1.09.17,2.19.37,3.26a7.43,7.43,0,0,1,.31,3.34,18.92,18.92,0,0,1-.76,2.77,9.57,9.57,0,0,1-1.21,1.67,6.13,6.13,0,0,1-.66,1c-.93.86-1.88,1.71-2.88,2.49a2.77,2.77,0,0,1-1.93.64,2.53,2.53,0,0,0-1.48.28,3.62,3.62,0,0,1-2.42.48,1,1,0,0,0-1.27.93c-.2.86-.05,1.14.81,1.21a2.93,2.93,0,0,1,.37.1,7.45,7.45,0,0,0,1.7.27c2-.1,3.59-1.22,5.14-2.35.67-.49,1.28-1.07,1.92-1.62a6.22,6.22,0,0,0,2.3-3.33,23.58,23.58,0,0,0,.79-3c.14-1.46,0-2.94,0-4.41a1.59,1.59,0,0,0-.07-.38c-.15-.69-.31-1.38-.46-2.06C992,559.92,991.9,559.42,991.79,558.92Zm-11.71,3.76-.22-.1-1.54,1.95c-.72.9-1.43,1.81-2.16,2.69a23.68,23.68,0,0,1-2,2.24,37.94,37.94,0,0,1-3.1,2.56.71.71,0,0,0-.28,1,1.09,1.09,0,0,0,.13.17c.25.34.69.55.89.9a3.79,3.79,0,0,0,2.33,1.74c.59.21,1.17.45,1.77.63a1.38,1.38,0,0,0,1,.06,1,1,0,0,0,.16-.88c-.14-.47-.54-.19-.87-.18-.75,0-1.51.27-2.22-.26a6.58,6.58,0,0,0-1.47-.86c-.37-.15-.59-.35-.5-.72a2.24,2.24,0,0,1,.5-1.12,3.69,3.69,0,0,1,1.38-.63,1.14,1.14,0,0,1,1.41.38,1.84,1.84,0,0,0,.65.59.52.52,0,0,0,.82-.51,18.06,18.06,0,0,0-.06-2.55,3.08,3.08,0,0,1,.48-2.31c.85-1.25,1.72-2.49,2.55-3.76A4.25,4.25,0,0,0,980.08,562.68Zm-41.17-3.51-.19,0c-.1.3-.22.59-.32.89-.44,1.31-.86,2.64-1.33,3.94-.18.48-.53.9-.68,1.38a14.2,14.2,0,0,1-2.86,4.95,25,25,0,0,1-2.06,1.93c-.24.22-.81.21-.69.64.17.6.68.1.88,0,.56-.21,1.2-.29,1.54-1a19.7,19.7,0,0,1,1.6-2.44,32.2,32.2,0,0,0,1.82-2.67c.53-1,.78-2.11,1.32-3.07A14.22,14.22,0,0,0,939,559.6C939,559.47,938.94,559.31,938.91,559.17Zm.58,16.14c1-.51,1.85-.95,2.7-1.44,1.16-.65,2.32-1.29,3.43-2a8.7,8.7,0,0,0,3-3,15.43,15.43,0,0,0,1.24-2.93,7.91,7.91,0,0,0,0-2.08c-.17.16-.23.18-.23.21a9.08,9.08,0,0,1-2.51,5.74,8.4,8.4,0,0,1-3.53,2.71,36.57,36.57,0,0,0-4.28,1.9Zm22-29v-.12c-.07,0-.15-.08-.21-.07-1.38.15-2.76.29-4.13.48-.6.08-.9-.13-.79-.66s.15-1,.26-1.49c.2-.9.4-1.8.65-2.68.15-.51.46-1,.62-1.48.06-.2-.06-.65-.15-.67a1.91,1.91,0,0,0-.85.14.59.59,0,0,0-.23.38c-.23.93-.48,1.85-.64,2.79a27,27,0,0,0-.31,2.69c0,.53-.15,1.1.29,1.41,1-.07,1.92-.1,2.83-.23s1.77-.32,2.66-.49ZM957,568l-.33-.18a8.71,8.71,0,0,0-.86.75c-.33.36-.6.79-.92,1.16s-.62.6-.89.93a.79.79,0,0,0-.18.61.74.74,0,0,0,.52.37c.65.09,1.31.1,2,.15a.55.55,0,0,0,.68-.4.5.5,0,0,0,0-.21c0-1.06,0-2.12,0-3.18Zm21.44-32.87c.18-.17.38-.27.41-.4.17-.71.75-.75,1.28-.86a8.33,8.33,0,0,0,1.31-.22,1,1,0,0,0,.43-.62c0-.11-.2-.4-.35-.43a4.53,4.53,0,0,0-1.1-.05c-.33,0-.66.06-1,.06s-.51-.26-.44-.63a1.22,1.22,0,0,1,1.19-1.18.76.76,0,0,0,.42-.23s0-.21-.08-.27a1,1,0,0,0-1.77.42,6.83,6.83,0,0,0-.32,2.91,9.39,9.39,0,0,1,0,1.5Zm1.08,6c-.59,0-.83.19-.88.65a3.94,3.94,0,0,1-.19,1.18,9.18,9.18,0,0,0-.73,4.45c0,.3.19.82.36.85a2.66,2.66,0,0,0,1-.23c-.25-.28-.59-.49-.57-.65.15-1.29.37-2.58.58-3.86.12-.78.26-1.56.4-2.39Zm-26.65,27.49c.28-.05.38,0,.43-.08.68-.59,1.4-1.13,2-1.78s1-1.26,1.47-1.87c.64-.79,1.32-1.54,1.94-2.34a1.75,1.75,0,0,0,.25-.84s-.23-.23-.27-.2a2.87,2.87,0,0,0-.64.51c-.28.34-.52.71-.78,1.08-.53.75-1,1.52-1.6,2.25s-1,1.29-1.57,1.92C953.72,567.66,953.33,568.05,952.82,568.59ZM929,573.7c-.34-.18-.64-.31-.91-.48s-.78-.4-.92-.7c-.39-.93-.64-1.92-1-2.88-.16-.47-.36-.93-.54-1.4a8,8,0,0,0,.55,4.53,2,2,0,0,0,2.7,1l.09,0Zm3.56,1.42a5.62,5.62,0,0,0,3.91,1.11c.17,0,.42-.51.44-.79s-.38-.46-.6-.47a4.49,4.49,0,0,0-1.25.21,1.38,1.38,0,0,1-1.34-.21c-.34-.27-.8-.55-1.16.15Zm50.71-35.88.23-.16-1.85-2.76c-.92.41-1.1,1.1-.43,1.64A22.69,22.69,0,0,0,983.26,539.24Zm-48.11-7.9a1.72,1.72,0,0,0,.13,1.81c.39.47.9.19,1.37,0a.62.62,0,0,1,.19,0c.61,0,.54-.42.56-.79s-.12-.29-.6-.34S935.47,532.17,935.15,531.34Zm26,7.1c.9-1.53.51-2.14-1.6-2.59C959.7,537,960.55,537.59,961.18,538.44ZM939.52,538a1.63,1.63,0,0,0-1.27-1.91l-.18,0a1.73,1.73,0,0,0-.7.18c.08.27.08.67.26.79a18.62,18.62,0,0,0,1.89,1Zm-3.09,33.27c-.79-.09-1.69.46-1.71,1.13s.68.41,1,.6a3.93,3.93,0,0,0,.67.19Zm15.73,3a6.78,6.78,0,0,0,3.91.2,4.06,4.06,0,0,0-3.91-.2Zm-16.94-43.46c.47-.11.89-.2,1.3-.32s.6-.25.89-.4a1.45,1.45,0,0,0-1.73-.14A.69.69,0,0,0,935.22,530.83Zm-2.53-1.89-.2.2a1.89,1.89,0,0,0,.29.69.73.73,0,0,0,.67.1c.15-.06.18-.37.27-.57Zm2.86,10.8.09,2c.7-.66.65-1.74-.09-2ZM977.46,529c-.33-.15-.54-.32-.67-.28a3.2,3.2,0,0,0-.67.49l.44.55Zm-15.05,44.1c-2.19-.18-2.19-.18-2.28.37Zm-6.66-45.17h-.21l-.46.46.61.79.23-.12Zm-6.36,29.4.32,0-.18-1.61-.29,0Z"/><path class="cls-5" d="M944.1,553.83a16.28,16.28,0,0,1-1,1.88,1,1,0,0,1-.87.12c-.15,0-.26-.47-.24-.7a11.07,11.07,0,0,1,.33-1.62.76.76,0,0,1,.9-.57.58.58,0,0,1,.17.06C943.64,553.11,943.82,553.5,944.1,553.83Z"/><path class="cls-5" d="M901.48,613.45l.84,1.34-.64.22c.21,1.58.41,3.13.64,4.91a2.69,2.69,0,0,0,1.06,0c1.42-.63,2.81-1.32,4.2-2,.6-.31,1-.54,1.7.06a4.88,4.88,0,0,0,3.68,1.42c.4.48.2.9-.11,1.45q-3.5,6.12-6.87,12.3c-.72,1.34-1.25,2.78-1.91,4.15a4.3,4.3,0,0,1-1,1.13c.32-2.23-1.7-2.07-2.73-2.88-.29-.24-.83-.16-1.39-.23a1.25,1.25,0,0,1,.47-1.28,7.54,7.54,0,0,0,1.44-2.17c.8-1.61,1.5-3.27,2.24-4.92a4.78,4.78,0,0,0,.11-.66c-1.58.64-3,1.17-4.43,1.83-.59.28-.82.2-1-.36s-.11-.88-.2-1.31c-.19-.91-.39-1.81-.59-2.71l-.32,0c-.73,1.21-1.55,2.37-2.18,3.63s-1,2.53-1.61,3.76a1.08,1.08,0,0,1-1,.21c-.94-.56-1.77-1.29-2.71-1.83-.37-.21-.94-.08-1.49-.11a1,1,0,0,1,.43-1.41,2,2,0,0,0,.57-.76c1.56-2.86,3.15-5.71,4.67-8.6,1-1.81,1.82-3.66,2.7-5.51.11-.21,0-.51.05-.77s0-.55.15-.67.46,0,.65.1c1,.55,2,1.15,3,1.65.23.12.63-.11,1-.18Z"/><path class="cls-5" d="M867.82,583.64c-1.57,1-3,2-4.33,2.92a.78.78,0,0,0,0,.77,25,25,0,0,0,2.14,2.46,1.1,1.1,0,0,0,1,.09c.82-.53,1.61-1.11,2.38-1.72a5.24,5.24,0,0,0,.79-.77c.47-.55.89-.47,1.16.12a10.35,10.35,0,0,0,2.47,3.25,4.36,4.36,0,0,0,.6.33c.16.11.41.28.39.38a.92.92,0,0,1-.36.59c-1.31.83-2.65,1.61-4,2.43-1.84,1.17-3.68,2.33-5.5,3.54-1.07.72-2.08,1.53-3.14,2.27-.46.33-1,.56-1.45.86a6.7,6.7,0,0,0-2.26,1.88c-.21.33-.82.4-1.39.54.8-1.11.07-1.94-.41-2.7a14.9,14.9,0,0,0-1.84-2.07l-.34.1a2.66,2.66,0,0,1,.47-.68q2.2-1.56,4.43-3.09a21.07,21.07,0,0,1,2.12-1.41c.77-.41.39-.93.14-1.27-.64-.88-1.4-1.68-2.24-2.66L855,592.11c-.89.57-1.8,1.14-2.68,1.74-.26.18-.39.61-.65.69-.47.13-1.13.29-1.46.07a6.77,6.77,0,0,0-3.49-1.27c-.46,0-.7-.35-.39-.87s.69-1.29,1-1.93a2.23,2.23,0,0,1,.53-.69c1.76-1.23,3.55-2.42,5.31-3.64,1.29-.88,2.53-1.82,3.82-2.69,1.44-1,2.91-1.92,4.35-2.9a24.92,24.92,0,0,0,2.12-1.59c.54-.46.81-.24,1.12.25a38,38,0,0,0,2.46,3.59C867.37,583.2,868,583.18,867.82,583.64Z"/><path class="cls-5" d="M932.43,639.13c-.24,1.13-.52,2.24-.72,3.37s-.35,2.48-.6,3.7c-.06.32-.39.59-.65,1a3.3,3.3,0,0,0-4.79-1.12c.16-.8.26-1.34.37-1.89.43-2.24.77-4.5,1.33-6.71a16.56,16.56,0,0,0,.78-4.68c0-.56.39-.75.86-.7,1.37.13,2.74.28,4.09.52a.6.6,0,0,1,.59.62.48.48,0,0,1-.07.26,16.9,16.9,0,0,0-.8,3.07c-.14.82.31,1.11,1,.61,1.37-1,2.69-2,4-3.12a1,1,0,0,0-.49-1.62c-1.72-.51-3.43-1.1-5.17-1.55a12.36,12.36,0,0,0-2.57-.24,3.19,3.19,0,0,1-2.17-.67c.82-1.26,1.53-2.45,2.36-3.54a1.63,1.63,0,0,1,1.27-.48,32.17,32.17,0,0,1,4.59.69c2.22.55,4.52,1,6.4,2.43a5.43,5.43,0,0,1,2.45,4.28,5.7,5.7,0,0,1-1.29,3.34,8.15,8.15,0,0,1-3.82,2.47.78.78,0,0,0-.51,1.2c1,2.44,1.95,4.88,2.94,7.32.08.19.3.32.41.5s.4.53.35.73-.39.4-.65.51c-1,.43-1.95.81-2.93,1.22a.67.67,0,0,0-.18.07c-1,.73-.83.62-1.6-.44-2.16-3-2.73-6.53-3.84-9.9a8.56,8.56,0,0,0-.64-1.24Z"/><path class="cls-5" d="M867.71,605.4c-1.21,1.77-2.49,3.35-2,5.84-.18.2-.53.36-1.18.2a7.2,7.2,0,0,0-4.14-.25c-.45.15-.87-.11-.67-.81.79-2.86,1.61-5.73,3.41-8.15a13.66,13.66,0,0,1,6-4.77,12.19,12.19,0,0,1,8.33-.52,16.64,16.64,0,0,1,3.56,1.93c1.11.71,2.14,1.56,3.36,2.46-.17,1.43-2.33,2.48-1.55,4.52a1.62,1.62,0,0,1-1.46-.86,10.32,10.32,0,0,0-2.64-2.16,7.06,7.06,0,0,0-5.18-1.21,7.86,7.86,0,0,0-1.47.61c1,.94,2,1.86,3,2.67.42.34,1.47-.65,1.52-1.4,0-.21,0-.56.15-.6a.82.82,0,0,1,.68.12c1,.89,1.93,1.84,2.93,2.71a.76.76,0,0,1,0,1.28c-.86.94-1.75,1.87-2.62,2.8l-2.45,2.56c-.8.84-1.65,1.65-2.41,2.52a15,15,0,0,0-.84,1.46c-.21.3-.5.67-.8.71s-.57-.38-.72-.68a5.14,5.14,0,0,0-2.65-2.34c-.2-.09-.47-.3-.48-.47a.77.77,0,0,1,.35-.61,12,12,0,0,0,3.43-3.41.82.82,0,0,0,0-.79c-.53-.61-1.13-1.15-1.72-1.72l-.83-.79C868.33,606,868.05,605.72,867.71,605.4Z"/><path class="cls-5" d="M920.94,643.88c-.4-.19-.8-.4-1.22-.56-1.28-.47-2.57-1-3.87-1.38-1.58-.53-3.18-1-4.76-1.5-.61-.21-1.15-.69-1.79-.05a.55.55,0,0,1-.51-.06,1,1,0,0,1-.07-.66c.94-2.6,1.87-5.2,2.87-7.78.72-1.85,1.6-3.65,2.27-5.52a47.47,47.47,0,0,0,1.43-5.09c.16-.64.45-.56.86-.41,1.25.45,2.47,1,3.73,1.37,1.81.6,3.63,1.14,5.45,1.7.3.09.62.14.92.23l1.36.45c-1.53,1.66-.59,3.58-1,5.06-1.16-.5-2.24-1-3.34-1.43-.87-.36-1.77-.66-2.65-1a1.21,1.21,0,0,0-1.84.77c-.44,1.61-.63,2.1,1.29,2.33,1.6.19,3.19.54,4.77.87.31.07.56.41,1,.72a5.74,5.74,0,0,0-3,3.09c-.2.49-.83.8-1.32,1.25-.77-2-2.75-1.42-4.09-2.14a.67.67,0,0,0-.24-.07,10.71,10.71,0,0,0-.92,2.08c-.14.55.26.88.89,1,1,.24,2,.67,3,1s2.1.53,3.15.8c.32.09.64.23,1.05.37C922.86,640.58,921.4,641.74,920.94,643.88Z"/><path class="cls-5" d="M958.42,635.38c-1.49-1.32-3.24-1.24-4.94-1.17-.79,0-.94,1-.42,1.68.86,1.08,1.66,2.2,2.46,3.33s1.77,2.43,2.53,3.71a4.41,4.41,0,0,1-1.83,6,7.85,7.85,0,0,1-3.2.43c-1.81,0-3.63-.12-5.44-.19-.19,0-.48,0-.54.05-.53.77-.94.42-1.36-.2,1.15-2.08-.86-4-.43-6.38,1.47,2,3.47,1.54,5.34,1.46.89,0,1.23-.65.73-1.4-.86-1.29-1.89-2.45-2.76-3.73-1.23-1.82-2.53-3.67-2.25-6,.19-1.6,2.36-3.27,4.06-3.63s3.11.32,4.67.19a7.44,7.44,0,0,0,1.93-.28c.77-.31,1.17.2,1.06.64-.37,1.65.49,3.15.4,4.74C958.42,634.83,958.42,635.09,958.42,635.38Z"/><path class="cls-5" d="M854.69,568.85a7.28,7.28,0,0,1,6.47,4.25c.42.88,1,1.7,1.37,2.59a1,1,0,0,1-.07.94c-1.07,1.14-2.18,2.22-3.31,3.29-.49.48-.76.36-1-.34-.6-1.75-.8-3.72-2.52-4.93a5.92,5.92,0,0,0-3.07-.5,6.45,6.45,0,0,0-3.82,3.92c-.55,1.48-.89,3.19.18,4.71.45.63.93,1.23,1.38,1.86a.55.55,0,0,1,.07.47c0,.07-.28.09-.43.09-.87,0-1.75,0-2.6.1a3.87,3.87,0,0,0-1.47.6c-.67.42-1.37.17-1.36-.63,0-1.78-.74-3.41-.94-5.11a7.87,7.87,0,0,1,1.3-6.09,14.59,14.59,0,0,1,2.21-2.59,21.86,21.86,0,0,1,3.58-2A5.87,5.87,0,0,1,854.69,568.85Z"/><path class="cls-5" d="M875.06,621c-.18-.63-.07-1,.66-1.34.56-.27.88-1.05,1.3-1.61.51-.71,1-1.42,1.5-2.15.77-1.15,1.49-2.35,2.27-3.48,1.65-2.39,3.34-4.75,5-7.13a2.27,2.27,0,0,0,.37-.86c.14-.68.44-.8,1-.34.89.72,1.76,1.48,2.67,2.18.35.26.82.36,1.19.6a10,10,0,0,1,1.06.89c-2.1.53-2.63,2.4-3.68,3.72-1.77,2.24-3.32,4.65-5.06,6.93-.52.68-.37,1.15.14,1.52,1.63,1.16,3.11,2.55,5.09,3.15.17,0,.3.25.45.39a3.73,3.73,0,0,1-.44.45c-.84.57-1.74,1.08-2.53,1.72a5.68,5.68,0,0,0-.92,1.39c-.56,0-1.37.12-1.39-1,0-.1-.28-.19-.42-.29-1.15-.84-2.26-1.73-3.46-2.5s-2.57-1.51-3.88-2.21C875.73,620.91,875.37,621,875.06,621Z"/><path class="cls-5" d="M961,650.35c0-1.46,0-2.92,0-4.38-.06-2.09-.2-4.17-.26-6.26-.05-1.42,0-2.84,0-4.27,1.41,0,2.89.06,4.38.13,1.31.06,1.4.18,1.54,1.45,0,.35.11.68.17,1.1a6,6,0,0,0,3.69-2.9c.47-.72.06-1-.53-1.14a14.23,14.23,0,0,0-5.36-.3c-1.43.2-2.88.34-4.32.43-.83.06-.5-.57-.37-.92.51-1.42,1.07-2.82,1.63-4.27,1.6,0,3.23,0,4.85.09a34.07,34.07,0,0,1,5.06.39A10.89,10.89,0,0,1,975,631c1.5.93,2,3.43,1.19,5.13a12.47,12.47,0,0,1-.73,1.52,8.67,8.67,0,0,1-.94,1.07,30.6,30.6,0,0,1,2.07,3c.83,1.5,1.38,3.14.4,4.78a5.82,5.82,0,0,1-3.58,2.45c-3.2.94-6.53.76-9.8,1.06a7.77,7.77,0,0,0-2.48.5Zm9.72-8.61a13.64,13.64,0,0,0-2.93-2.42c-.65-.41-1.1-.09-1.12.65s-.11,1.63-.1,2.45a3.69,3.69,0,0,0,.23,1.85c.53.78,3.28.72,4,.06S971.57,643,970.7,641.74Z"/><path class="cls-5" d="M1067.69,577.6c-1.73-.86-3-2.48-5.07-2.79-.46-.08-.56-.44-.26-1,.6-1.06,1.19-2.13,1.78-3.2a4.4,4.4,0,0,0,.21-.5c.33-1,.34-1,1.28-.32,2.64,1.78,5.31,3.51,7.95,5.27,1.79,1.2,3.52,2.5,5.37,3.59.84.5,1.5,1.43,2.75,1.26.34,0,.8.72,1.24,1.16-.13.15-.23.37-.32.36-1.88,0-2,1.7-2.87,2.74-.12.15-.12.38-.23.54-.28.39-.46.67-.94,0a8.38,8.38,0,0,0-3.84-2.43c-.53-.19-1.23.11-1.86.19l-4.85.64-.09.34c.75.51,1.5,1,2.26,1.54,1.54,1,3.07,2.05,4.65,3,.92.55,2,.79,2.5,2-1.29.47-.51,1.54-.55,2.34a6.23,6.23,0,0,0,.65,2c0,.15.06.44,0,.5s-.47.18-.59.09a11.18,11.18,0,0,0-4.11-1.46,6.2,6.2,0,0,1-1.74-1c-1.41-.91-2.82-1.83-4.21-2.78-.93-.63-1.8-1.38-2.75-2-1.89-1.21-3.81-2.37-5.74-3.52-.27-.17-.72-.1-.93-.3s-.48-.74-.37-.92c.61-1,1.34-2,2-3,.24-.35.46-.73.73-1a1.08,1.08,0,0,1,.61-.41c1.63-.11,3.26-.17,4.88-.27.8,0,1.6-.14,2.4-.22Z"/><path class="cls-5" d="M983.16,640.76c-.15,2.77,1.83,4.39,3.49,6.26a7.81,7.81,0,0,0-3.45,3.11c-.26.46-.6.36-.91,0a23.94,23.94,0,0,1-4-7.34,15.41,15.41,0,0,1-.6-6.4,8.91,8.91,0,0,1,2.27-5.37,13.36,13.36,0,0,1,6.35-4c1.36-.39,2.73-.74,4.14-1.12.63,1.5,1.27,3.06,2,4.7,0,0-.27.27-.41.24-2.62-.71-4.76.4-6.75,1.87a9.94,9.94,0,0,0-1.85,2.09,5,5,0,0,0-.5,1.4c1.29-.17,2.38-.3,3.47-.46s1.14-.32.85-1.34a5.17,5.17,0,0,1,0-1.47l5.38-.5c0,.05.21.23.19.38a11.73,11.73,0,0,0,.57,4c.28,1.33.36,2.7.57,4s.51,2.67.7,4c.06.43,0,.8-.75.77A16.44,16.44,0,0,0,990,646c-.68.14-.88.11-.94-.62-.14-1.57-.35-3.13-.6-4.68-.07-.5-.43-.68-1-.58C986.09,640.4,984.71,640.55,983.16,640.76Z"/><path class="cls-5" d="M1059.38,587.91c-1.25,1.49-2.38,2.84-3.5,4.2a11.81,11.81,0,0,0-1.28,1.78c-.11.19.1.69.31.88a8.76,8.76,0,0,0,1.48.93c1.86-1.57,2.88-4,4.5-6.06.17.29.33.62.54.92.56.79,1.14,1.57,1.71,2.36a.59.59,0,0,1,.17.27c0,.48.4.83-.41,1.3s-1.32,1.64-1.92,2.53c-.33.48-.86,1-.8,1.49s.77.75,1.2,1.12l.13.14c.84.86,1.22.83,1.86-.15,1-1.47,2-2.93,2.92-4.4.39-.6.73-1.23,1.17-2l3.62,5.19c-1.32.09-1.77.88-2.32,1.64-1.29,1.78-2.69,3.49-4,5.26a25.46,25.46,0,0,0-1.58,2.53c-.1.19.06.51.12.93a4.12,4.12,0,0,1-1.07-.48c-1.57-1.43-3-2.95-4.65-4.32s-3.55-2.77-5.33-4.15c-1.34-1-2.66-2.1-4-3.13a4.85,4.85,0,0,0-1.06-.55.73.73,0,0,1-.32-1,.57.57,0,0,1,.08-.13c1.29-1.46,2.58-2.9,3.83-4.39.89-1,1.71-2.16,2.54-3.26.38-.5.63-1.34,1.09-1.45s1.07.53,1.66.73c.92.32,1.88.52,2.81.82C1059.11,587.57,1059.28,587.83,1059.38,587.91Z"/><path class="cls-5" d="M1013.32,640c-2.58-6-4.92-12.15-8.14-17.76l11.16-5.31,3.73,4.53c-2.66-.35-4.29,1.84-6.56,2.37-.43.1-1.1.71-1,.94a8.44,8.44,0,0,0,1,2c.07.13.23.21.48.42l6-3.68c.1.56.17,1,.28,1.45.18.76.41,1.51.59,2.27.29,1.23.21,1.22-1,1.61a33.33,33.33,0,0,0-3.12,1.39l-1.29.58c.27.81.52,1.67.84,2.5.06.15.42.25.64.26a1.79,1.79,0,0,0,.82-.16c1.85-.93,3.71-1.87,5.53-2.85a6.57,6.57,0,0,0,1.12-1.1,10.18,10.18,0,0,1,.36,1.31,28.63,28.63,0,0,0,.36,3c.27,1.09.14,1.24-.91,1.59-2,.66-3.94,1.45-5.86,2.28C1016.71,638.33,1015.11,639.15,1013.32,640Z"/><path class="cls-5" d="M1054.5,616.43c-1-.31-1.5.41-2.07.91-.75.66-1.38,1.47-2.1,2.18a2.39,2.39,0,0,1-.76.35c-.59-2.35-2.31-4-3.73-5.76s-2.7-3.5-4-5.27c-.57-.78-1.08-.76-1.79-.16s-1.69,1.19-2.48,1.84a14.53,14.53,0,0,0-1.38,1.56,6.32,6.32,0,0,1-.5-1c-.42-1.43-.67-2.92-1.92-4.15.53-.46,1-.91,1.53-1.33,2.17-1.8,4.29-3.7,6.57-5.36a10.81,10.81,0,0,0,2.52-2.39c.25-.33.84-.41,1.07-.51,1.42.89,2.71,1.74,4,2.51.77.44.84.64.11,1.19-1.09.82-2.19,1.64-3.29,2.44-.57.4-.77.87-.35,1.46,1,1.29,1.89,2.58,2.9,3.83,1.52,1.88,3.09,3.73,4.64,5.58a8.37,8.37,0,0,1,.57.62c.26.4.47.84.71,1.26Z"/><path class="cls-5" d="M1035.45,612.46c-.78.26-1.45.43-2.08.7a15.26,15.26,0,0,0-1.88,1,1.13,1.13,0,0,0-.51,1.63c.64,1.27,1.23,2.57,1.91,3.82,1.43,2.65,2.9,5.27,4.35,7.9.15.28.27.58.43.91-1.57,1-3.61,1.13-4.66,3.05a9.23,9.23,0,0,1-.54-.84c-1-2-1.92-4.11-3-6.11s-2.16-3.72-3.28-5.56a1.18,1.18,0,0,0-1.91-.41c-1.1.72-2.2,1.43-3.31,2.12a.56.56,0,0,1-.52,0,1.08,1.08,0,0,1-.19-.58c-.12-1-.18-2-.38-3-.07-.38-.45-.7-.8-1.22l2.29-1.33c2.44-1.43,4.89-2.84,7.33-4.28.78-.46,1.52-1,2.32-1.44.29-.16,1-.21,1-.11.53,1.22,1.83,1.64,2.58,2.6C1035,611.66,1035.21,612.11,1035.45,612.46Z"/><path class="cls-5" d="M1010.25,640.75c-3.68,1.07-7.42,1.65-10.89,3.65-1.76-6.28-3.41-12.58-6.21-18.51.1-.08.23-.28.36-.28,1.73.07,3.09-.91,4.56-1.58a2.84,2.84,0,0,1,.77-.08,4.83,4.83,0,0,0,0,.76c.15.84.27,1.67.49,2.49.37,1.42.77,2.84,1.21,4.24.34,1.07.8,2.1,1.17,3.16.27.81.47,1.64.73,2.46.14.46.42.78.94.58,1.68-.63,3.35-1.27,5-1.95.4-.17.73-.51,1.12-.71a.79.79,0,0,1,.64,0c.1,0,.11.36.1.56,0,1.41,0,2.82-.06,4.23C1010.22,640.12,1010.25,640.5,1010.25,640.75Z"/><path class="cls-3" d="M913.88,490.36c2.36-.31,4.24,2.05,4.54,3.84a11.57,11.57,0,0,1-1.21,8.07,13.83,13.83,0,0,1-6.2,5.51,7.91,7.91,0,0,1-7.24,0,20.42,20.42,0,0,1-7.11-6,8.54,8.54,0,0,1-1.63-4.07,43.3,43.3,0,0,1-.27-8.59,11.31,11.31,0,0,1,2.4-6,22.91,22.91,0,0,1,9.74-8c6.85-2.89,13.46-1.94,19.88,1.6a24.22,24.22,0,0,1,9.82,10.23,28.31,28.31,0,0,1,3.27,12.57c0,.17,0,.34,0,.57h4.43c0-.29,0-.59,0-.89q0-10.44,0-20.89a1.52,1.52,0,0,0-.68-1.41,5,5,0,0,1-1.52-5.83,4.54,4.54,0,0,1,4.47-2.93,4.78,4.78,0,0,1,4.44,3.73,5,5,0,0,1-1.64,5,1.37,1.37,0,0,0-.45.9q0,10.88,0,21.75c0,.17,0,.33,0,.56h9.18c0-.32,0-.63,0-.93q0-15,0-30.1a1.49,1.49,0,0,0-.62-1.36,5,5,0,0,1-1.45-5.79,4.53,4.53,0,0,1,4.65-2.9,4.73,4.73,0,0,1,4.24,3.63,5,5,0,0,1-1.69,5.14,1.51,1.51,0,0,0-.51,1q0,15.22,0,30.45c0,.27,0,.55,0,.86h9.28c0-.31.05-.61.05-.91,0-7,0-13.93,0-20.89a1.52,1.52,0,0,0-.63-1.36,5,5,0,0,1-1.22-6.18,4.49,4.49,0,0,1,5.24-2.35A4.59,4.59,0,0,1,979.1,472a4.7,4.7,0,0,1-1.64,4.9,1.58,1.58,0,0,0-.64,1.36c0,6.91,0,13.81,0,20.72V500h4.49c.19-1.64.3-3.28.58-4.88a26.15,26.15,0,0,1,7.24-14.39,24.09,24.09,0,0,1,17.11-7.33,18.54,18.54,0,0,1,10.24,2.66,24,24,0,0,1,7.65,6.94c1.43,2.19,2.64,4.52,2.49,7.29-.14,2.52-.2,5.05-.38,7.57a7.45,7.45,0,0,1-1.82,4.24,22.38,22.38,0,0,1-6,5.18,8.5,8.5,0,0,1-8.77.18,13,13,0,0,1-6.53-7.32A11,11,0,0,1,1003,494a4.74,4.74,0,0,1,4.48-3.67c0,.25-.05.49-.07.72a5.58,5.58,0,0,0,2,5,3,3,0,0,0,3.62.43,3.82,3.82,0,0,0,1.22-3.76c-.69-2.45-2.57-3.69-4.74-4.52a9.38,9.38,0,0,0-12.09,5.18c-2.08,4.58-1.29,9,.36,13.38a50.75,50.75,0,0,0,4.75,8.64c2.36,3.85,4.57,7.8,6.94,11.65,1.48,2.42,3.2,4.7,4.69,7.11,3,4.86,6.08,9.68,8.83,14.68a57.47,57.47,0,0,1,6.26,16,35.35,35.35,0,0,1-.78,18.52,28.49,28.49,0,0,1-4.66,8.75,56.64,56.64,0,0,1-4.39,4.52c-.86.87-1.67,1.78-2.56,2.61a65,65,0,0,1-11.46,8.25c-2.33,1.38-5.1,2-7.66,3-6.05,2.41-12.45,3-18.83,3.75a174.84,174.84,0,0,1-21.7,1.09c-5.11-.06-10.21-.6-15.31-1a84.86,84.86,0,0,1-9.13-1.1,59.47,59.47,0,0,1-19-6.92,55,55,0,0,1-15.92-14.61,12.16,12.16,0,0,0-.91-1.13c-2.24-2.27-3.32-5.12-4.29-8.1-1.52-4.65-1.33-9.35-1.1-14.1.21-4.27,2-8.08,3.4-12,2.22-6.15,5.78-11.56,9.19-17.07,5.27-8.54,10.45-17.13,15.8-25.61a44.67,44.67,0,0,0,4-7.79,16.85,16.85,0,0,0,1.27-8.09c-.68-5.43-3.9-10.3-10.07-10.23a9.3,9.3,0,0,0-6.73,2.88,4.33,4.33,0,0,0-1.2,4.22,2.65,2.65,0,0,0,3.84,2A5.52,5.52,0,0,0,914,491C913.92,490.79,913.9,490.58,913.88,490.36Zm49,95.45h9.42c2.49,0,2.49.12,4.64.12,1.57,0,3,0,4.4,0a1.49,1.49,0,0,1,1,.47,5.68,5.68,0,0,0,2.86,1.92,11,11,0,0,0,9-1.23c2.58-1.65,4.44-4,6.48-6.23a23,23,0,0,0,5.95-14.53c.29-4.5.19-9.06-1.3-13.34-1.75-5.07-3.78-10.06-6-14.92-2.87-6.22-6.06-12.28-9.14-18.4q-3.5-6.93-7.06-13.81c-.13-.27-.43-.63-.66-.63-1.81-.05-3.63,0-5.56,0l-4.62,0h-9.39c-2.18,0-2.13,0-4.62,0h-9.27l-4.59-.08c-1.71,0-3.33,0-4.94,0a1,1,0,0,0-1.1.69c-1.77,3.53-3.6,7-5.38,10.55-5.23,10.37-10.63,20.66-15.07,31.42a39.92,39.92,0,0,0-2.79,20.35,19.84,19.84,0,0,0,2.46,8.18,45.67,45.67,0,0,0,7.51,9.12,13.22,13.22,0,0,0,9.55,3.63c1.93,0,3.12-.59,3.91-2.86a.7.7,0,0,1,.81-.53c1.66,0,3.33,0,5.11,0,1.58,0,2,0,4.6,0h9.06m-31.57,10.44-.11.32c.64.38,1.24.82,1.91,1.14a79.18,79.18,0,0,0,12.19,4.58,47.32,47.32,0,0,0,11.14,2.39c3.83.18,7.66.21,11.5.29a49.83,49.83,0,0,0,12.76-1.32c6.57-1.57,13-3.48,18.93-6.83a4.29,4.29,0,0,0,.48-.36,1.15,1.15,0,0,0-.86-.2c-1.44.34-2.87.68-4.3,1q-8.25,2.13-16.49,4.31c-1.87.49-2.84.23-3.75-1.5a26.88,26.88,0,0,1-1.52-3.78c-.16-.47-.34-.68-.87-.67q-6.87,0-13.73,0a.77.77,0,0,0-.89.65v0c-.21.86-.42,1.71-.67,2.55-.66,2.25-2,3.1-4.24,2.59-4.2-1-8.39-2-12.57-3.07-2.59-.66-5.14-1.46-7.71-2.16a4.82,4.82,0,0,0-1.2,0Z"/><path class="cls-3" d="M1055,482.2c-3.77-.5-7.4-2.72-11.88-.44a17.33,17.33,0,0,1,.72-3.23c.72-1.55.55-2.66-1-3.6-.56-.34-.88-1.08-1.31-1.64.57-.39,1.11-.81,1.71-1.14a6.81,6.81,0,0,1,1.45-.53c3.35-1,3.32-1,4.6,2.32a9.56,9.56,0,0,0,1.33,1.94l.67-.35-3.28-6.6,5.57-5.63,9.19,1.6c-1.42,3.47.13,6.28,2.6,9.15a9.6,9.6,0,0,0,.55-2.21c0-2.06,1.29-2.14,2.54-1.58a26.33,26.33,0,0,1,3.94,2.61l6.44-.71.31.62a11.89,11.89,0,0,1-1.5,1.51c-1.74,1.22-3.72,2.32-.72,5.12-1.84.23-3.23.82-4.29.45-3.19-1.09-5.25.66-7.42,2.37a8.3,8.3,0,0,1-2,1.44c-2.12.78-2.6,2.65-3.22,4.44-.29.84-.46,1.71-.67,2.52,4.24-.51,11.7-6.28,12.3-10l7.8,5.28c0,1.87-2.79,4.41,0,7.08l7.26,2.42v10.41c-2.46.74-4.92,1.5-7.39,2.22-2.81.82-4.49,2.53-4.4,5.59,0,1.51-.78,1.8-2,1.65-3.65-.44-4.13-1.17-3.36-4.67a1.78,1.78,0,0,0-.73-1.5,16.71,16.71,0,0,0-3.49-1.32c-1.46-.38-1.59-1.05-.77-2.2,1.58-2.21,3.32-4.32,3.68-7.19,0-.35.8-.68,1.28-.91a57.27,57.27,0,0,0,8.22-4.32h-5.38c-.08-1.15-.14-2.1-.21-3.24-2.25,1.11-4.87,1.71-6.37,3.34s-1.77,4.21-2.59,6.38l-.83-.14-5.35-9.9-3.88.38c-1.36-2.48,1.18-2,2-3l-2-2.56,1.73-2.25c2-1.2,4-2.35,5.9-3.62,1.35-.89,2.61-1.94,4.39-3.28-2.58-.31-4.6-.09-6.15-.85s-2.33-2.44-3.46-3.72l-.9.85a43.42,43.42,0,0,0,4,4c1,.75,1.12,1.23.33,2.12C1057.64,479.1,1056.32,480.66,1055,482.2Zm23.33,17.31c-2,.87-4,1.71-5.94,2.69a1.55,1.55,0,0,0-.51,1.4,6.85,6.85,0,0,0,1.16,1.72c1.61-.6,3.1-1.19,4.62-1.72,2.88-1,3-1.77.67-4.09Z"/><path class="cls-3" d="M830,491.31a24.07,24.07,0,0,1,4.73-1.57,7.28,7.28,0,0,1,3.71.84c1.66.78,2.7,2.83,5.06,2.48a15.78,15.78,0,0,0,.1-1.83c-.09-1.47.35-2.37,2-2.7,1.33-.28,2.56-1,3.87-1.42a1.84,1.84,0,0,1,1.56.19c4.22,4.33,9.88,6.25,15.07,8.91,2.29,1.17,3,2.86,3.29,5.07s.83,4.19,1.07,6.31a41,41,0,0,1,0,4.59c-2.6-.38-2.93-2-3.31-3.61-1.09-4.59-2.67-6.66-6.63-8.13.31,1.78.48,3.35.89,4.87s0,1.94-1.5,1.62c-.65-.15-1.49-.44-2-.17-2.72,1.6-4.89.41-7.22-1-4.44-2.67-8.93-5.26-13.52-7.63-1.13-.58-2.75-.3-4.14-.23a9.63,9.63,0,0,0-2.29.73c-.29-1.69-.55-3.16-.81-4.63Zm19.57,4.27-.19.91a11.92,11.92,0,0,0,1.83,1.6c1.61.88,3.37,1.51,4.93,2.47s2.83,1,4.14-.43c-2.51-1.43-4.88-2.93-7.39-4.16C852,495.51,850.72,495.69,849.61,495.58Z"/><path class="cls-3" d="M830,501.72c2.1-2.21,3.47-.19,5,1.06.34-.54.59-1,.86-1.38.86-1.35,2.41-1.49,2.88,0,1.4,4.43,5.48,5.05,8.87,6.62a49.64,49.64,0,0,0,5.75,1.86,5.13,5.13,0,0,1,.65-1.11,1.86,1.86,0,0,1,1.16-.62,1.43,1.43,0,0,1,1,.79c.61,1.71,1.12,3.47,1.75,5.45-1.93.69-5.09,0-5,3.63-2.4-1.46-4.53-2.91-6.79-4.1s-4.74-2.15-7.11-3.21l-.54.64.44,3.72c-2.12.64-3.11-.78-3.35-2.24-.6-3.56-2.79-5.74-5.66-7.49Z"/><path class="cls-3" d="M879.08,480.19a2.07,2.07,0,0,1-.39.63,7.7,7.7,0,0,1-1.06.91c-.31-.44-.88-.88-.88-1.32-.07-3.27-2.1-5.08-4.46-7-6-4.8-11.82-9.78-17.59-14.83-2.79-2.45-4.07-2.34-5.7,1a15.17,15.17,0,0,1-1.47,2l-.79-.39c.15-1.08.26-2.17.44-3.24a6.44,6.44,0,0,0-1.46-5.63c-.8-.92-2.31-1.66-.67-3.17s2.79-.83,3.85.65c.16.22.27.48.59,1.05,2.89-4.09,7.4-4.2,11.47-5.4a28.88,28.88,0,0,0,5.7-2.42,7.48,7.48,0,0,0,2-2.39,15.8,15.8,0,0,0,1-2.29c.49.74.92,1.1,1,1.52.51,3.57,3.11,5.82,5.24,8.33s4.48,4.85,6.75,7.25c2.84,3,5.67,6,8.59,9a2.73,2.73,0,0,0,2,.81c1.54-.27,1.53.43,1.21,1.47-.46,1.47-1,2.92-1.54,4.66-.74-.17-1.57-.35-2.4-.56a6.24,6.24,0,0,0-1.25-.4c-3.1-.07-5-1.13-5.77-4s-3.55-3.5-5-5.51a3.06,3.06,0,0,0-1.8.9c-.28.41,0,1.31.18,1.89.89,2.23,2.06,4.36,2.77,6.64.94,3,1.5,6.17,4.75,7.84.49.25.76,1.45.65,2.13-.06.41-1.11,1-1.66.92A34.91,34.91,0,0,1,879.08,480.19ZM863.22,454c2.83,1.21,5.64,2.46,8.51,3.58a2,2,0,0,0,1.7-.46,1.61,1.61,0,0,0,.32-1.52,13.59,13.59,0,0,0-2.46-3.37C869.4,450.58,864.52,451.73,863.22,454Zm10.49,16c-.28-1.05-.26-1.59-.52-1.83a69,69,0,0,0-6.23-5.38c-2.57-1.83-5.51-3.08-7.38-5.9-.72-1.09-1.65-2.85-4.4-1.78Z"/><path class="cls-3" d="M969.19,448.65c1.38-2.84,2.69-4.91,3.42-7.17a56.68,56.68,0,0,0,2.76-19.77c-.07-1.7.32-2.71,2-3.41,3-1.21,5.61-3,7-6.11,0-.07,0-.16.06-.22,1.84-2.7,2.53-2.71,4.49.19.25-.84.46-1.51.72-2.39l5.33.36c-2.23,2.07-3.43,3.85-1.83,6,2.58,3.4,5.82,2.36,9.63.52-.49,1.68-.54,2.85-1.11,3.66-4.15,5.9-5.41,12.9-7.23,19.62-.86,3.17-2.22,5.42-5,7a3.58,3.58,0,0,0-2,4.37c.38,1.51-1.58,3.48-3.15,3.28-.45-.06-.91-.58-1.21-1-.18-.25,0-.73-.06-1.1-.14-1.31.13-3.37-.56-3.77-2-1.16-4.15-2.32-6.71-1.58C973.81,447.67,971.76,448.05,969.19,448.65Zm18.45-24.09c-2.1,2.47-2.56,5.44-2.75,8.4-.23,3.42-.33,3.7-3.39,4.92a8.8,8.8,0,0,0-2,1.54,35.48,35.48,0,0,0,3.82,2.47c.25.13,1.35-.75,1.52-1.33a55.08,55.08,0,0,0,1.73-7.06c.48-3,.7-6,1-8.94Zm1.43,11.16c2.08-3.55,2.6-7.4,2.66-11.36C989.16,427.77,989.72,431.9,989.07,435.72Zm-9.25-.81,1,.07c.29-2.5.61-5,.84-7.5,0-.28-.42-.61-.66-.92-.23.23-.64.44-.66.68-.22,2.55-.38,5.11-.55,7.67Z"/><path class="cls-3" d="M940.45,448.54l-5.73,6.11c-.32-2.26-.58-4-.83-5.75l-.41,0a24.71,24.71,0,0,0-1.57,3.49c-.49,1.67-1.21,1.81-2.3.6s-1.64-1.19-2.53.19c-.3.46-1.46.61-2.18.51-2.47-.35-4.92-.81-7.36-1.35a23.75,23.75,0,0,1-3.16-1.15c.87-4.24-.09-6.68-3.32-8.78-1.17-.76-1.16-1.38,0-2.2,2.14-1.56,4.36-3,5.13-5.87.29-1.07,1.36-1.9,2.56-.72,2.46,2.44,3.48,2.64,6.56,1.12.26-.13.51-.28,1.44-.81,0,1.29,0,2.15,0,3a5.11,5.11,0,0,0,0,1.46c.87,2.58,1.71,5.18,2.75,7.69a13.77,13.77,0,0,0,2.17,2.77c2.2-5.15-1.08-8.9-1.73-13.07-.11-.75-1.34-1.41-2.17-1.93a9.05,9.05,0,0,0-2.17-.71l-.1-.63c.57-.3,1.16-.6,1.73-.92,1-.53,2-1,2.86-1.63.59-.41,1.4-1.52,1.52-1.44a14.55,14.55,0,0,1,2.13,2,1.88,1.88,0,0,1,.27.55,2.18,2.18,0,0,0,.51,0c1.1-.27,1.1-2.41,3-1.52,3,1.44,6.61,2.1,7.11,6.35.25,2.2.67,4.39.88,6.6a3,3,0,0,0,2.84,3.13c.44.06.81.51,1.22.78a10.05,10.05,0,0,0-.79,1.14c-.68,1.33-1.32,2.69-2.07,4.21a1.4,1.4,0,0,1-.78-.28c-1.61-1.52-3.21-3.07-4.71-4.7a2.2,2.2,0,0,1-.54-1.8c1-2.4-.62-4.29-1.14-6.36-.13-.54-1.52-.78-2.32-1.15-.37.81-1,1.63-1,2.44C936.06,443.56,938.25,446.19,940.45,448.54ZM919,441.62c-1.55,1.56-.22,2.71.38,4s1.6,2.1,3.18,1.71c1.41-.36,1.29-1.49,1.16-2.51-.17-1.47-.66-2.76-2.46-2.91C920.57,441.86,919.85,441.73,919,441.62Z"/><path class="cls-3" d="M884.05,438c-.76,1.94.13,3.28,1.29,4.78,2.75,3.58,5.27,7.33,7.88,11,2.35,3.33,3.9,7.5,8.79,8l-3,6c-.35-.28-.82-.46-.87-.72-.49-2.53-2.29-3.08-4.47-3-1.22.05-1.64-.44-2.24-1.56a66.48,66.48,0,0,0-4.65-6.76c-2.12-3-4.3-6-6.34-9.1-1.5-2.28-3.26-3.89-6.65-3.34a7.06,7.06,0,0,1,.77-1.71c1.28-1.35,2.85-2.5,2.7-4.7a2.47,2.47,0,0,1,1.63-.31,6.86,6.86,0,0,1,1.54,1.65c3.1-.58,4.15-2.85,4.83-5.36.49-1.8,1.32-1.58,2.63-.83a3.39,3.39,0,0,0,2.53.42c2-.76,2.73.14,3.43,1.8,1.38,3.26,2.83,6.49,4.45,9.64,1.47,2.87,3.31,5.57,4.79,8.44a9.81,9.81,0,0,0,6.19,5,4.85,4.85,0,0,1,1.29,1c-.39.38-.78.76-1.16,1.16-.71.73-1.45,1.44-2.11,2.2-.5.58-.91,1.24-1.66,2.3-.42-2.88-1.73-4-4.2-3.59a1.28,1.28,0,0,1-1-.63c-.81-4.75-4.44-7.94-6.51-12-.91-1.78-2.1-3.41-3-5.17C889.42,439.94,887.84,437.54,884.05,438Z"/><path class="cls-3" d="M967.57,447.06c-4.65,1.64-6.28-1.88-8.72-5.21a45.79,45.79,0,0,0-3.84,4.62c-1.35,2.12-2.5,2.22-4.15.29a30.28,30.28,0,0,0-3.59-3.09l-1.9-12.79a23.39,23.39,0,0,0,3.21-1.77c.92-.68,1.5-1.8,2.41-2.5a4.26,4.26,0,0,1,2-.54c1.1,3.07,3.8,2.82,5.42,3l6.51-3.85,7.62,6.82c-2.73,2.28-7,3.6-6.19,8.88a16.27,16.27,0,0,1,2.72-2.3,17.82,17.82,0,0,1,3.76-1C971,441.25,967.21,443.06,967.57,447.06Zm-14.89-13.24-.73.3c.13,1.78.15,3.59.44,5.35.21,1.24,1.13,1.76,2.49,1.64s2.93,0,4.63,0c-.2-3.12,1.57-6.79-1.83-10.22a28.13,28.13,0,0,1,0,3.86,7.6,7.6,0,0,1-1,2.08,15.14,15.14,0,0,1-1.63-1C954.2,435.18,953.45,434.48,952.68,433.82Zm14.76-1.29-.92-1.17-2.39-.57-.18,3.7Z"/><path class="cls-3" d="M1020.33,453.15a47,47,0,0,0-6,3.09c-2,1.36-2.84,1.47-4.44-.38-.25-.29-.54-.53-.79-.81-3.18-3.62-3.23-4.23-1-8.37,1-1.86,1.85-3.8,2.85-5.87-2.41.07-4.58,3.73-6.72-.92-1.32,3.23-2.52,5.88-3.42,8.62-.18.55.74,1.49,1.19,2.24.27.44.93.91.87,1.26-.2,1.19-4,2.25-4.86,1.41-.52-.52-.86-1.22-1.38-1.73-.78-.77-1.66-1.44-2.77-2.39a2.81,2.81,0,0,1,.45-1.05c2.71-3.06,3.55-6.9,4.56-10.66.14-.54-.32-1.25-.52-1.87-.3-1-.62-1.92-.86-2.64l7-2.31c-.15,1.12-.31,2.24-.52,3.77,1.06-.41,1.48-.54,1.87-.73,3.37-1.61,3.51-1.45,3.53,2.15,0,1.19.86,2.39,1.54,4.13a11,11,0,0,0,.69-1c.08-.21.09-.59.18-.61a25.91,25.91,0,0,0,4.9-.95c2.32-1,3,.53,3.9,2,1.25,2.13,2.52,3,6.12,3.65-2.31,1.25-4.1,3-5.9,3s-3.71-1.61-5.81-2.63c-.63,1.59-1.45,3.32-2,5.13s.44,2.63,2.39,2.39a12.18,12.18,0,0,1,4,.13c.41.08.57,1.31.84,2Z"/><path class="cls-3" d="M1020.25,453.22c.89-1.16,1.84-2.27,2.64-3.49,1.12-1.71,2.09-3.52,3.2-5.24,2.11-3.29,4.48-6.47,3-10.79-.19-.55.23-1.31.37-2a7.23,7.23,0,0,1,2,.5,45.53,45.53,0,0,1,4.35,2.95,18.06,18.06,0,0,1,2,2.17,12.23,12.23,0,0,1-2.12,1.35c-2.4.95-4.71,5.35-3.92,7.65l3.72-1.19c1.5,2.54-.17,6.6,3.55,7.72l-7.91,12.8c-2.57.75-5.78,1.59-8.91,2.66a3.4,3.4,0,0,1-4-1.09,47.16,47.16,0,0,1,4.95-2.06c4.67-1.38,6-5.36,7.44-9.27a2.41,2.41,0,0,0,.25-1.29c-.24-1-.63-1.89-1-2.83a7,7,0,0,0-2.12,1.33c-1.7,2.33-3.43,4.7-1.8,7.86.27.53,0,1.31,0,2.22-1.68,0-3.33.3-4.78-.11a4.18,4.18,0,0,1-2.28-2.43,16.69,16.69,0,0,1-.65-4.59,2.76,2.76,0,0,1,.59-1.61,8.53,8.53,0,0,1,1.44-1.31Z"/><path class="cls-3" d="M867.14,486c.46-1.06.85-2.16,1.4-3.17a6.83,6.83,0,0,1,1.68-2.23c1.25-.92,2.06-.23,2.31,1.12a3.66,3.66,0,0,1-.14,1.77,11.3,11.3,0,0,0,0,7.61,9.57,9.57,0,0,1,.17,2.11c-.78-.19-1.58-.14-1.91-.51-1.33-1.46-2.67-1-4-.2-1.78,1.07-3,.79-4.77-.61-2.59-2-5.81-3.29-8.86-4.93-.35-2.23-.78-4.94-1.2-7.64-.21-1.39.22-2.21,1.78-2.45,3.13-.48,6.23-1.13,9.34-1.71,1.13-.21,1.89,0,2,1.41.08,2.09.21,4.17.47,6.24a20.79,20.79,0,0,0,.88,3.22Zm-6.19-.26c.16-1.9.29-3.51.42-5.07-1.9-.43-3.68-.46-4,1.33S858.87,484.75,861,485.69Z"/><path class="cls-3" d="M1050,465.75c-3.34.79-6.39-2.08-10,.25,1.32.74,2.23,1.23,3.13,1.76a7.39,7.39,0,0,1,2,1.28c.82.95.3,2-.79,1.78-2.85-.58-5.15.61-7.54,1.73a4.24,4.24,0,0,1-1.39.15c-.23-3.05-.48-6-.65-9a2.2,2.2,0,0,1,.48-1.32c.68-.87,1.82-1.55,2.12-2.51,1.57-5,5.61-5,9.71-5.21,3.62-.15,4,.38,3,4a10.37,10.37,0,0,0,0,2.73Zm-8.67-4.52.36.69h4.39l-1.1-3.62Z"/><path class="cls-3" d="M918.89,456.58c-3.94-1.35-4.92,1.59-6.47,4.55-.23-1.1-.33-1.54-.41-2-.27-1.72-.86-3-3-3.24-1.35-.15-2.08-1-2.61-2.58-1.35-3.95-3-7.86-6.89-10.18-.27-.16-.37-.62-.67-1.18.71-.22,1.47-.75,2-.59,2.07.56,3.73-.18,5.47-1.12,1.14-.62,1.83-.32,2,1.23.5,5.8,2.81,10.48,8.49,12.92a15.7,15.7,0,0,1,2,1.27C918.89,456,918.89,456.28,918.89,456.58Z"/><path class="cls-3" d="M907.09,437.86,900,440c-.66-2.51-1.68-5-5-5.68l.27-.73,7.63-1.91C902.2,435,905.4,435.81,907.09,437.86Z"/><path d="M824.37,543.85c18.85.67,32.65,1.24,35.46,1.44l2.31.18c2.13.19,3.55.31,5.2.56s1.47.31,3.18.55a28.9,28.9,0,0,0,4.05.37,25,25,0,0,0,3.46-.18c4.11-.57,3.94-2.92,3.94-2.92s.17-2.43-3.94-3a25,25,0,0,0-3.46-.18,28.9,28.9,0,0,0-4.05.37c-1.71.24-1.46.3-3.18.55s-3.07.37-5.2.56l-2.31.18c-2.81.21-16.61.77-35.46,1.44"/><path d="M1097,543.78c-18.85-.68-32.65-1.24-35.45-1.45-1.1-.07-2.32-.18-2.32-.18-2.13-.19-3.54-.31-5.2-.55s-1.46-.32-3.18-.56a30.49,30.49,0,0,0-4-.37,23.67,23.67,0,0,0-3.47.19c-4.1.56-3.94,2.92-3.94,2.92s-.16,2.42,3.94,3a25.14,25.14,0,0,0,3.47.19,32.26,32.26,0,0,0,4-.37c1.72-.25,1.47-.3,3.18-.56s3.07-.37,5.2-.55c0,0,1.22-.11,2.32-.19,2.8-.2,16.6-.77,35.45-1.44"/></g></svg>